# xmcd
#
# Track frame offsets:
#	150
#	17050
#	36365
#	52677
#	71890
#	92825
#	112540
#	128855
#	146122
#	162765
#	181995
#	197840
#
# Disc length: 2850 seconds
#
# Revision: 1
# Processed by: cddbd v1.5.1PL0 Copyright (c) Steve Scherf et al.
# Submitted via: CDex 1.50Beta5
#
DISCID=a00b200c
DTITLE=坂上香織 - 夏休み
DYEAR=1989
DGENRE=Pop
TTITLE0=グッドバイ・マイ・ラブ(VERSIONII)
TTITLE1=一人ぼっちになりたくて
TTITLE2=夏休み
TTITLE3=明日吹く風
TTITLE4=風をあつめて
TTITLE5=Summer Kissは海辺で…
TTITLE6=夢で逢えたら
TTITLE7=Boyfriend(City MIX)
TTITLE8=バス通り
TTITLE9=10月のソーダ水
TTITLE10=ソバカスのある少女
TTITLE11=プラトニックつらぬいて(VERSIONIII)
EXTD=
EXTT0=
EXTT1=
EXTT2=
EXTT3=
EXTT4=
EXTT5=
EXTT6=
EXTT7=
EXTT8=
EXTT9=
EXTT10=
EXTT11=
PLAYORDER=
